<svg id="Livello_1" data-name="Livello 1" xmlns="http://www.w3.org/2000/svg" xmlns:xlink="http://www.w3.org/1999/xlink" viewBox="0 0 512 512"><defs><style>.cls-1{fill:url(#Sfumatura_senza_nome_48);}.cls-2{fill:url(#Sfumatura_senza_nome_44);}.cls-3{fill:#fff;}</style><linearGradient id="Sfumatura_senza_nome_48" x1="-2" y1="255.5" x2="514" y2="255.5" gradientUnits="userSpaceOnUse"><stop offset="0" stop-color="#d500f9"/><stop offset="0.99" stop-color="#2962ff"/></linearGradient><linearGradient id="Sfumatura_senza_nome_44" x1="108.25" y1="255.49" x2="240.78" y2="255.49" gradientUnits="userSpaceOnUse"><stop offset="0" stop-color="#ff2f00"/><stop offset="0" stop-color="#ffd600"/><stop offset="0.84" stop-color="#ffd600"/></linearGradient></defs><rect class="cls-1" x="-2" y="-3" width="516" height="517"/><path class="cls-2" d="M108.25,145.82V365.15a11.51,11.51,0,0,0,19.64,8.14L237.41,263.76a11.49,11.49,0,0,0,0-16.25L127.9,137.7A11.5,11.5,0,0,0,108.25,145.82Z"/><path class="cls-3" d="M368.82,186.82H220.07L151.61,118H368.82a34.41,34.41,0,0,1,34.41,34.41h0A34.41,34.41,0,0,1,368.82,186.82Z"/><path class="cls-3" d="M369.54,290.41H254.84l34.41-34.65-34.41-34.17h114.7A34.42,34.42,0,0,1,404,256h0A34.42,34.42,0,0,1,369.54,290.41Z"/><path class="cls-3" d="M368.77,393.59l-217.16-.31,68.82-68.82,148.46.29a34.41,34.41,0,0,1,34.34,34.41v0A34.41,34.41,0,0,1,368.77,393.59Z"/></svg>