<svg xmlns="http://www.w3.org/2000/svg" width="20.412" height="27.111" viewBox="0 0 20.412 27.111"><defs><style>.a{fill:#f3705a;}.b{fill:#ffd15c;}</style></defs><g transform="translate(-63.168)"><path class="a" d="M67.262,24.661a19.134,19.134,0,0,1-3.281-4.638,10.516,10.516,0,0,1-.622-6.052,13.054,13.054,0,0,1,2.6-5.6,5.4,5.4,0,0,0,1.357,3.959,9.41,9.41,0,0,1,2.149-7.806A16.168,16.168,0,0,1,76.368,0a5.575,5.575,0,0,0-.962,5.317,22.17,22.17,0,0,0,2.545,5.034,11.236,11.236,0,0,1,1.923,5.2,18.192,18.192,0,0,0,1.414-3,5.923,5.923,0,0,0,.226-3.281,8.412,8.412,0,0,1,1.867,4.072,17.117,17.117,0,0,1,.057,4.808A12.024,12.024,0,0,1,81.8,23.19a9.445,9.445,0,0,1-4.921,3.677C73.37,27.489,69.92,26.98,67.262,24.661Z" transform="translate(0)"/><path class="b" d="M154.7,230.8c4.638,1.81,9.22-3.677,6.674-7.919,0-.057-.057-.057-.057-.113.226,2.319-.339,4.016-1.414,4.977a5.283,5.283,0,0,0-.509-4.3c-.679-1.3-1.64-2.489-2.376-3.733a6.012,6.012,0,0,1-.962-4.242,7.459,7.459,0,0,0-2.715,4.186,7.571,7.571,0,0,0,.566,4.977,3.718,3.718,0,0,1-1.527-2.715,5.824,5.824,0,0,0-1.414,3.9A5.761,5.761,0,0,0,154.7,230.8Z" transform="translate(-83.136 -204.041)"/></g></svg>