<svg xmlns="http://www.w3.org/2000/svg" xmlns:xlink="http://www.w3.org/1999/xlink" width="182.303" height="24" viewBox="0 0 182.303 24"><defs><style>.a{fill:url(#a);}.b{fill:url(#b);}.c{fill:url(#c);}.d{fill:url(#d);}.e{fill:#6236ff;}</style><linearGradient id="a" y1="0.5" x2="1" y2="0.5" gradientUnits="objectBoundingBox"><stop offset="0" stop-color="#ff2f00"/><stop offset="0" stop-color="#ffd600"/><stop offset="0.842" stop-color="#ffd600"/></linearGradient><linearGradient id="b" x1="-0.172" y1="0.5" x2="0.913" y2="0.5" gradientUnits="objectBoundingBox"><stop offset="0" stop-color="#d500f9"/><stop offset="0.995" stop-color="#2962ff"/></linearGradient><linearGradient id="c" x1="-0.982" y1="0.5" x2="0.848" y2="0.5" xlink:href="#b"/><linearGradient id="d" x1="-0.172" y1="0.5" x2="0.913" y2="0.5" xlink:href="#b"/></defs><g transform="translate(-111.585 -94.252)"><path class="a" d="M407.926,98.311v18.517a.971.971,0,0,0,1.658.687l9.246-9.246a.971.971,0,0,0,0-1.372l-9.246-9.27A.971.971,0,0,0,407.926,98.311Z" transform="translate(-139.001 -1.448)"/><path class="b" d="M433.157,100.557H420.6l-5.78-5.81h18.338a2.9,2.9,0,0,1,2.9,2.9h0A2.9,2.9,0,0,1,433.157,100.557Z" transform="translate(-142.235 -0.232)"/><path class="c" d="M440.917,117.028h-9.683l2.905-2.925-2.905-2.885h9.683a2.905,2.905,0,0,1,2.905,2.905h0A2.9,2.9,0,0,1,440.917,117.028Z" transform="translate(-149.934 -7.958)"/><path class="d" d="M433.153,133.412l-18.333-.027,5.81-5.81,12.533.024a2.905,2.905,0,0,1,2.9,2.9v0A2.906,2.906,0,0,1,433.153,133.412Z" transform="translate(-142.235 -15.631)"/><path class="e" d="M41.444,20.292a2.787,2.787,0,0,1,1.082-1.431,2.908,2.908,0,0,1,1.648-.5,2.849,2.849,0,0,1,1.914.7,2.369,2.369,0,0,1,.816,1.9,4.381,4.381,0,0,1-.266,1.331L39.946,40.4a2.682,2.682,0,0,1-1.215,1.448,3.787,3.787,0,0,1-1.947.516,3.7,3.7,0,0,1-1.931-.516,2.7,2.7,0,0,1-1.2-1.448l-4.327-12.35L24.8,40.4a2.861,2.861,0,0,1-1.232,1.448,3.637,3.637,0,0,1-1.9.516,3.7,3.7,0,0,1-1.931-.516,2.7,2.7,0,0,1-1.2-1.448L11.818,22.289a3.831,3.831,0,0,1-.233-1.265,2.374,2.374,0,0,1,.882-1.947,3.154,3.154,0,0,1,2.047-.716,3.2,3.2,0,0,1,1.714.483,2.646,2.646,0,0,1,1.115,1.448L21.9,33.407l4.827-13.115a2.787,2.787,0,0,1,1.082-1.431,2.908,2.908,0,0,1,1.648-.5,2.774,2.774,0,0,1,2.7,1.964l4.527,13.381Zm18.84,22.069q-5.093,0-7.739-2.6T49.9,32.176V21.424a3,3,0,1,1,5.992,0V32.409A5.948,5.948,0,0,0,57.022,36.3a4.581,4.581,0,0,0,6.524,0,5.948,5.948,0,0,0,1.132-3.895V21.424a2.808,2.808,0,0,1,3-3,3,3,0,0,1,2.2.816,2.914,2.914,0,0,1,.832,2.18V32.176q0,4.96-2.68,7.573T60.284,42.362ZM90.576,29.879a5.635,5.635,0,0,1,4.261,5.759,5.736,5.736,0,0,1-1.015,3.379,6.559,6.559,0,0,1-2.9,2.247,11.219,11.219,0,0,1-4.411.8H77.66a2.556,2.556,0,0,1-2.829-2.829V21.424a2.556,2.556,0,0,1,2.829-2.829h8.521a9.518,9.518,0,0,1,5.875,1.648,5.281,5.281,0,0,1,2.18,4.444,5.412,5.412,0,0,1-.965,3.179A5.48,5.48,0,0,1,90.576,29.879Zm-9.786-2.064H85.15a4.666,4.666,0,0,0,2.53-.533,1.892,1.892,0,0,0,.8-1.7,2.05,2.05,0,0,0-.8-1.8,4.443,4.443,0,0,0-2.53-.566H80.789Zm4.96,9.62a4.477,4.477,0,0,0,2.613-.583,2.23,2.23,0,0,0,.782-1.914,2.23,2.23,0,0,0-.782-1.914,4.477,4.477,0,0,0-2.613-.583h-4.96v4.993Zm20.272,4.793a3.107,3.107,0,0,1-2.247-.816,2.883,2.883,0,0,1-.849-2.18V23.554H98.232a3.278,3.278,0,0,1-2.18-.616,2.347,2.347,0,0,1-.716-1.881,2.3,2.3,0,0,1,.716-1.864,3.342,3.342,0,0,1,2.18-.6H113.81a3.342,3.342,0,0,1,2.18.6,2.3,2.3,0,0,1,.716,1.864,2.347,2.347,0,0,1-.716,1.881,3.278,3.278,0,0,1-2.18.616h-4.693V39.233a2.883,2.883,0,0,1-.849,2.18A3.107,3.107,0,0,1,106.021,42.228Zm15.678.033a2.815,2.815,0,0,1-3.029-3.029V21.424a2.947,2.947,0,0,1,.816-2.18,2.991,2.991,0,0,1,2.214-.816,3.094,3.094,0,0,1,2.264.816,2.914,2.914,0,0,1,.832,2.18V39.233a2.958,2.958,0,0,1-.832,2.214A3.094,3.094,0,0,1,121.7,42.262Zm15.745-.033a3.107,3.107,0,0,1-2.247-.816,2.883,2.883,0,0,1-.849-2.18V23.554h-4.693a3.278,3.278,0,0,1-2.18-.616,2.347,2.347,0,0,1-.716-1.881,2.3,2.3,0,0,1,.716-1.864,3.342,3.342,0,0,1,2.18-.6h15.578a3.342,3.342,0,0,1,2.18.6,2.3,2.3,0,0,1,.716,1.864,2.347,2.347,0,0,1-.716,1.881,3.278,3.278,0,0,1-2.18.616h-4.694V39.233a2.883,2.883,0,0,1-.849,2.18A3.107,3.107,0,0,1,137.444,42.228Zm15.479-.166a2.838,2.838,0,0,1-2.1-.732,2.886,2.886,0,0,1-.732-2.13V21.424a2.946,2.946,0,0,1,.816-2.18,2.991,2.991,0,0,1,2.214-.816,3.094,3.094,0,0,1,2.264.816,2.914,2.914,0,0,1,.832,2.18V37.1h7.656q2.9,0,2.9,2.5a2.3,2.3,0,0,1-.716,1.864,3.342,3.342,0,0,1-2.18.6Z" transform="translate(100 75.89)"/></g></svg>