<svg xmlns="http://www.w3.org/2000/svg" width="24" height="23.995" viewBox="0 0 24 23.995"><defs><style>.a{fill:#f6b44b;}.b{fill:#ffd05c;}.c{fill:#41596b;}.d{fill:#334a5e;}.e{fill:#f2705b;}.f{fill:#fff;}.g{fill:#89d6f7;}</style></defs><g transform="translate(0 -0.05)"><path class="a" d="M42.365,296.072a5.34,5.34,0,0,1-.387.628,6.032,6.032,0,0,1-5.026,2.532,6.257,6.257,0,0,1,.08-1.039,6,6,0,0,1-3.1.794,6.088,6.088,0,0,1,.794-3.1,5.791,5.791,0,0,1-1.039.076,6.036,6.036,0,0,1,2.532-5.026,5.343,5.343,0,0,1,.628-.387c0,.024-.009.052-.014.076a6.2,6.2,0,0,1,1.578.425,6.07,6.07,0,0,1,.968.5,6.237,6.237,0,0,1,1.974,1.979,6.1,6.1,0,0,1,.505.968,6.2,6.2,0,0,1,.425,1.578A.217.217,0,0,0,42.365,296.072Z" transform="translate(-32.096 -276.778)"/><path class="b" d="M65.219,304.7a4.941,4.941,0,0,1-3.75,3.566l.288-1.87-1.889,1.077a4.867,4.867,0,0,1-1.417.543,5.115,5.115,0,0,1,.543-1.417l1.077-1.889L58.2,305a4.941,4.941,0,0,1,3.566-3.75,6.07,6.07,0,0,1,.968.5,6.237,6.237,0,0,1,1.974,1.979A5.987,5.987,0,0,1,65.219,304.7Z" transform="translate(-55.451 -286.973)"/><path class="c" d="M9.48,166.775a4.907,4.907,0,0,0,.368-.34A6.719,6.719,0,0,0,4.6,154.98,6.69,6.69,0,0,0,.34,156.926c-.118.118-.231.246-.34.368a8.491,8.491,0,1,1,16.8,2.47,8.506,8.506,0,0,1-7.317,7.01Z" transform="translate(0 -142.73)"/><path class="d" d="M109.6,159.961a17.829,17.829,0,0,1-5,2.414,6.71,6.71,0,0,0-7.2-7.2,17.7,17.7,0,0,1,2.414-5,8.492,8.492,0,0,1,9.787,9.787Z" transform="translate(-92.799 -142.92)"/><path class="e" d="M105.856,19.308a6.318,6.318,0,0,0-.931-2.546,6.316,6.316,0,0,0-1.979-1.979,6.318,6.318,0,0,0-2.546-.931A17.325,17.325,0,0,1,117.386.05h2.272V2.322a17.325,17.325,0,0,1-13.8,16.986Z" transform="translate(-95.658)"/><path class="f" d="M266.88,88.112a3.8,3.8,0,1,0-2.7,6.481,3.8,3.8,0,0,0,2.7-6.481Z" transform="translate(-248.099 -82.843)"/><circle class="g" cx="2.527" cy="2.527" r="2.527" transform="translate(13.571 5.425)"/><path class="c" d="M124.278,259.25h0a11.413,11.413,0,0,0-6.178,6.178h0A11.428,11.428,0,0,0,124.278,259.25Z" transform="translate(-112.522 -246.957)"/><path class="d" d="M392.571,5.761,387.2.39a17.505,17.505,0,0,1,3.439-.34h2.272V2.322A17.542,17.542,0,0,1,392.571,5.761Z" transform="translate(-368.911)"/></g></svg>